<?xml version="1.0" encoding="iso-8859-1"?>
<!-- Uploaded to: SVG Repo, www.svgrepo.com, Generator: SVG Repo Mixer Tools -->
<svg height="800px" width="800px" version="1.1" id="Layer_1" xmlns="http://www.w3.org/2000/svg" xmlns:xlink="http://www.w3.org/1999/xlink" 
	 viewBox="0 0 489.929 489.929" xml:space="preserve">
<path style="fill:#3BABFF;" d="M445.046,466.849c0,12.753-10.335,23.079-23.095,23.079H67.97c-12.761,0-23.095-10.335-23.095-23.079
	V23.079C44.875,10.327,55.209,0,67.97,0h353.989c12.761,0,23.095,10.335,23.095,23.079v443.77H445.046z"/>
<path style="fill:#007EEF;" d="M44.883,23.079C44.883,10.327,55.217,0,67.978,0h353.981c12.761,0,23.095,10.335,23.095,23.079
	v443.77c0,12.753-10.335,23.079-23.095,23.079"/>
<path style="fill:#0B537F;" d="M421.959,0H67.97C55.209,0,44.875,10.335,44.875,23.079v174.427h400.171V23.079
	C445.046,10.327,434.719,0,421.959,0z"/>
<path style="fill:#024363;" d="M445.046,197.506V23.079C445.046,10.327,434.712,0,421.951,0H67.97
	C55.209,0,44.875,10.335,44.875,23.079"/>
<g>
	<path style="fill:#3BABFF;" d="M104.196,90.128c0,2.434-1.953,4.395-4.395,4.395l0,0c-2.418,0-4.387-1.969-4.387-4.395V42.346
		c0-2.434,1.969-4.395,4.387-4.395l0,0c2.442,0,4.395,1.969,4.395,4.395V90.128z"/>
	<path style="fill:#3BABFF;" d="M150.52,90.128c0,2.434-1.953,4.395-4.38,4.395l0,0c-2.426,0-4.395-1.969-4.395-4.395V42.346
		c0-2.434,1.969-4.395,4.395-4.395l0,0c2.426,0,4.38,1.969,4.38,4.395V90.128z"/>
	<path style="fill:#3BABFF;" d="M137.114,29.326c2.442,0,4.411,1.977,4.411,4.395l0,0c0,2.426-1.969,4.387-4.411,4.387H108.82
		c-2.426,0-4.387-1.969-4.387-4.387l0,0c0-2.418,1.961-4.395,4.387-4.395H137.114z"/>
</g>
<path style="fill:#233535;" d="M137.114,94.358c2.442,0,4.411,1.969,4.411,4.387l0,0c0,2.434-1.969,4.395-4.411,4.395H108.82
	c-2.426,0-4.387-1.961-4.387-4.395l0,0c0-2.418,1.961-4.387,4.387-4.387H137.114z"/>
<g>
	<path style="fill:#3BABFF;" d="M104.196,155.168c0,2.426-1.953,4.387-4.395,4.387l0,0c-2.418,0-4.387-1.961-4.387-4.387v-47.805
		c0-2.41,1.969-4.387,4.387-4.387l0,0c2.442,0,4.395,1.977,4.395,4.387V155.168z"/>
	<path style="fill:#3BABFF;" d="M150.52,155.168c0,2.426-1.953,4.387-4.38,4.387l0,0c-2.426,0-4.395-1.961-4.395-4.387v-47.805
		c0-2.41,1.969-4.387,4.395-4.387l0,0c2.426,0,4.38,1.977,4.38,4.387V155.168z"/>
	<path style="fill:#3BABFF;" d="M137.114,159.397c2.442,0,4.411,1.969,4.411,4.387l0,0c0,2.418-1.969,4.387-4.411,4.387H108.82
		c-2.426,0-4.387-1.969-4.387-4.387l0,0c0-2.418,1.961-4.387,4.387-4.387H137.114z"/>
</g>
<path style="fill:#233535;" d="M177.963,90.128c0,2.434-1.977,4.395-4.403,4.395l0,0c-2.41,0-4.387-1.969-4.387-4.395V42.346
	c0-2.434,1.977-4.395,4.387-4.395l0,0c2.426,0,4.403,1.969,4.403,4.395V90.128z"/>
<g>
	<path style="fill:#3BABFF;" d="M224.287,90.128c0,2.434-1.961,4.395-4.38,4.395l0,0c-2.434,0-4.387-1.969-4.387-4.395V42.346
		c0-2.434,1.953-4.395,4.387-4.395l0,0c2.418,0,4.38,1.969,4.38,4.395V90.128z"/>
	<path style="fill:#3BABFF;" d="M210.881,29.326c2.418,0,4.387,1.977,4.387,4.395l0,0c0,2.426-1.969,4.387-4.387,4.387h-28.294
		c-2.434,0-4.387-1.969-4.387-4.387l0,0c0-2.418,1.953-4.395,4.387-4.395H210.881z"/>
</g>
<g>
	<path style="fill:#233535;" d="M210.881,94.358c2.418,0,4.387,1.969,4.387,4.387l0,0c0,2.434-1.969,4.395-4.387,4.395h-28.294
		c-2.434,0-4.387-1.961-4.387-4.395l0,0c0-2.418,1.953-4.387,4.387-4.387H210.881z"/>
	<path style="fill:#233535;" d="M177.963,155.168c0,2.426-1.977,4.387-4.403,4.387l0,0c-2.41,0-4.387-1.961-4.387-4.387v-47.805
		c0-2.41,1.977-4.387,4.387-4.387l0,0c2.426,0,4.403,1.977,4.403,4.387V155.168z"/>
</g>
<path style="fill:#3BABFF;" d="M224.287,155.168c0,2.426-1.961,4.387-4.38,4.387l0,0c-2.434,0-4.387-1.961-4.387-4.387v-47.805
	c0-2.41,1.953-4.387,4.387-4.387l0,0c2.418,0,4.38,1.977,4.38,4.387V155.168z"/>
<path style="fill:#233535;" d="M210.881,159.397c2.418,0,4.387,1.969,4.387,4.387l0,0c0,2.418-1.969,4.387-4.387,4.387h-28.294
	c-2.434,0-4.387-1.969-4.387-4.387l0,0c0-2.418,1.953-4.387,4.387-4.387H210.881z"/>
<g>
	<path style="fill:#075CD8;" d="M160.09,337.692c0,3.6-2.914,6.53-6.522,6.53h-16.289c-3.608,0-6.514-2.93-6.514-6.53v-86.213
		c0-3.6,2.907-6.514,6.514-6.514h16.289c3.608,0,6.522,2.914,6.522,6.514V337.692z"/>
	<path style="fill:#075CD8;" d="M188.526,279.922c3.592,0,6.506,2.922,6.506,6.522v16.297c0,3.6-2.914,6.522-6.506,6.522h-86.205
		c-3.608,0-6.522-2.93-6.522-6.522v-16.297c0-3.6,2.914-6.522,6.522-6.522H188.526z"/>
	<path style="fill:#075CD8;" d="M390.215,279.922c3.592,0,6.514,2.922,6.514,6.522v16.297c0,3.6-2.922,6.522-6.514,6.522H304.01
		c-3.608,0-6.53-2.93-6.53-6.522v-16.297c0-3.6,2.922-6.522,6.53-6.522H390.215z"/>
	<path style="fill:#075CD8;" d="M289.367,381.093c3.608,0,6.522,2.914,6.522,6.514v16.297c0,3.6-2.914,6.53-6.522,6.53h-86.205
		c-3.6,0-6.522-2.93-6.522-6.53v-16.297c0-3.6,2.922-6.514,6.522-6.514H289.367z"/>
	<path style="fill:#075CD8;" d="M289.367,439.154c3.608,0,6.522,2.914,6.522,6.514v16.305c0,3.592-2.914,6.514-6.522,6.514h-86.205
		c-3.6,0-6.522-2.922-6.522-6.514v-16.305c0-3.6,2.922-6.514,6.522-6.514H289.367z"/>
</g>
<path style="fill:#B4EA1F;" d="M188.526,268.383H160.09v-28.444c0-3.6-2.914-6.514-6.522-6.514h-16.289
	c-3.608,0-6.514,2.914-6.514,6.514v28.444h-28.436c-3.608,0-6.522,2.914-6.522,6.514v16.305c0,3.6,2.914,6.522,6.522,6.522h28.436
	v28.428c0,3.6,2.907,6.522,6.514,6.522h16.289c3.608,0,6.522-2.922,6.522-6.522v-28.428h28.436c3.592,0,6.506-2.922,6.506-6.522
	v-16.305C195.033,271.297,192.118,268.383,188.526,268.383z"/>
<path style="fill:#D5FF3E;" d="M160.09,268.383v-28.444c0-3.6-2.914-6.514-6.522-6.514h-16.289c-3.608,0-6.514,2.914-6.514,6.514
	v28.444h-28.436c-3.608,0-6.522,2.914-6.522,6.514v16.305c0,3.6,2.914,6.522,6.522,6.522h28.436"/>
<path style="fill:#FF9E1D;" d="M390.215,268.383c3.592,0,6.514,2.914,6.514,6.514v16.305c0,3.6-2.922,6.522-6.514,6.522H304.01
	c-3.608,0-6.53-2.922-6.53-6.522v-16.305c0-3.6,2.922-6.514,6.53-6.514H390.215z"/>
<path style="fill:#FFC41F;" d="M304.01,297.716c-3.608,0-6.53-2.922-6.53-6.522v-16.297c0-3.6,2.922-6.514,6.53-6.514h86.205
	c3.592,0,6.514,2.914,6.514,6.514"/>
<g>
	<path style="fill:#E4F2F7;" d="M289.367,369.546c3.608,0,6.522,2.914,6.522,6.514v16.305c0,3.6-2.914,6.522-6.522,6.522h-86.205
		c-3.6,0-6.522-2.922-6.522-6.522V376.06c0-3.6,2.922-6.514,6.522-6.514H289.367z"/>
	<path style="fill:#E4F2F7;" d="M289.367,427.615c3.608,0,6.522,2.914,6.522,6.514v16.305c0,3.592-2.914,6.514-6.522,6.514h-86.205
		c-3.6,0-6.522-2.922-6.522-6.514v-16.305c0-3.6,2.922-6.514,6.522-6.514H289.367z"/>
</g>
<path style="fill:#075CD8;" d="M449.764,201.389c-0.016,4.269-3.466,7.704-7.727,7.696l-394.161-1.158
	c-4.269-0.016-7.712-3.482-7.712-7.743l0,0c0.016-4.269,3.482-7.712,7.759-7.712l394.138,1.174
	C446.338,193.662,449.796,197.128,449.764,201.389L449.764,201.389z"/>
</svg>